<?xml version="1.0" encoding="us-ascii" standalone="no"?><svg xmlns="http://www.w3.org/2000/svg" xmlns:xlink="http://www.w3.org/1999/xlink" contentStyleType="text/css" height="1724px" preserveAspectRatio="none" style="width:1183px;height:1724px;background:#FFFFFF;" version="1.1" viewBox="0 0 1183 1724" width="1183px" zoomAndPan="magnify"><defs/><g><text fill="#888888" font-family="Meiryo" font-size="10" lengthAdjust="spacing" textLength="3" x="1166.5" y="10.6006">&#160;</text><text fill="#FF0000" font-family="Meiryo" font-size="10" lengthAdjust="spacing" textLength="20" x="1149.5" y="25.6006">&#20844;&#38283;</text><text fill="#888888" font-family="Meiryo" font-size="10" lengthAdjust="spacing" textLength="3" x="1166.5" y="40.6006">&#160;</text><text fill="#888888" font-family="Meiryo" font-size="10" lengthAdjust="spacing" textLength="3" x="1166.5" y="55.6006">&#160;</text><text fill="#000000" font-family="Meiryo" font-size="14" font-weight="bold" lengthAdjust="spacing" textLength="98" x="535.75" y="85.8408">&#20351;&#12360;&#12427;&#35201;&#32032;&#19968;&#35239;</text><!--cluster ????????--><g id="cluster_&#20837;&#12428;&#23376;&#12364;&#21487;&#33021;&#12391;&#12377;"><rect fill="#FFFFFF" height="153" rx="2.5" ry="2.5" style="stroke:#000000;stroke-width:1.0;" width="331" x="536" y="314.5"/><path d="M658,314.5 L658,328.5 L648,338.5 L536,338.5 " fill="none" style="stroke:#000000;stroke-width:1.0;"/><text fill="#000000" font-family="Meiryo" font-size="14" font-weight="bold" lengthAdjust="spacing" textLength="112" x="539" y="330.3408">&#20837;&#12428;&#23376;&#12364;&#21487;&#33021;&#12391;&#12377;</text></g><!--entity ???1--><g id="elem_&#23376;&#35201;&#32032;1"><rect fill="#FFFFFF" height="41" rx="2.5" ry="2.5" style="stroke:#000000;stroke-width:0.5;" width="71" x="665.5" y="382.5"/><text fill="#000000" font-family="Meiryo" font-size="14" lengthAdjust="spacing" textLength="51" x="675.5" y="407.3408">&#23376;&#35201;&#32032;1</text></g><!--entity ???2--><g id="elem_&#23376;&#35201;&#32032;2"><ellipse cx="605" cy="371" fill="#FFFFFF" rx="8" ry="8" style="stroke:#000000;stroke-width:0.5;"/><path d="M605,379 L605,406 M592,387 L618,387 M605,406 L592,421 M605,406 L618,421 " fill="none" style="stroke:#000000;stroke-width:0.5;"/><text fill="#000000" font-family="Meiryo" font-size="14" lengthAdjust="spacing" textLength="51" x="579.5" y="437.3408">&#23376;&#35201;&#32032;2</text></g><!--entity ???3--><g id="elem_&#23376;&#35201;&#32032;3"><path d="M771.5,388 C771.5,378 807,378 807,378 C807,378 842.5,378 842.5,388 L842.5,418 C842.5,428 807,428 807,428 C807,428 771.5,428 771.5,418 L771.5,388 " fill="#FFFFFF" style="stroke:#000000;stroke-width:0.5;"/><path d="M771.5,388 C771.5,398 807,398 807,398 C807,398 842.5,398 842.5,388 " fill="none" style="stroke:#000000;stroke-width:0.5;"/><text fill="#000000" font-family="Meiryo" font-size="14" lengthAdjust="spacing" textLength="51" x="781.5" y="416.8408">&#23376;&#35201;&#32032;3</text></g><!--entity ????--><g id="elem_&#12450;&#12463;&#12479;&#12540;"><ellipse cx="166" cy="117" fill="#FFFFFF" rx="8" ry="8" style="stroke:#000000;stroke-width:0.5;"/><path d="M166,125 L166,152 M153,133 L179,133 M166,152 L153,167 M166,152 L179,167 " fill="none" style="stroke:#000000;stroke-width:0.5;"/><text fill="#000000" font-family="Meiryo" font-size="14" lengthAdjust="spacing" textLength="56" x="138" y="183.3408">&#12450;&#12463;&#12479;&#12540;</text></g><g id="elem_&#12518;&#12540;&#12473;&#12465;&#12540;&#12473;"><ellipse cx="165.9241" cy="270.1709" fill="#FFFFFF" rx="76.9241" ry="19.1709" style="stroke:#000000;stroke-width:0.5;"/><text fill="#000000" font-family="Meiryo" font-size="14" lengthAdjust="spacing" textLength="84" x="120.9241" y="274.8413">&#12518;&#12540;&#12473;&#12465;&#12540;&#12473;</text></g><!--entity ???--><g id="elem_&#23550;&#35937;&#29289;"><rect fill="#FFFFFF" height="44" rx="2.5" ry="2.5" style="stroke:#000000;stroke-width:0.5;" width="72" x="130" y="381"/><polygon fill="#FFFFFF" points="185,386,185,400,197,400,197,392,191,386,185,386" style="stroke:#000000;stroke-width:0.5;"/><line style="stroke:#000000;stroke-width:0.5;" x1="191" x2="191" y1="386" y2="392"/><line style="stroke:#000000;stroke-width:0.5;" x1="197" x2="191" y1="392" y2="392"/><text fill="#000000" font-family="Meiryo" font-size="14" lengthAdjust="spacing" textLength="42" x="140" y="408.8408">&#23550;&#35937;&#29289;</text></g><!--entity ???--><g id="elem_&#12459;&#12540;&#12489;"><rect fill="#FFFFFF" height="27" rx="2.5" ry="2.5" style="stroke:#000000;stroke-width:0.5;" width="62" x="135" y="524"/><text fill="#000000" font-family="Meiryo" font-size="14" lengthAdjust="spacing" textLength="42" x="145" y="541.8408">&#12459;&#12540;&#12489;</text></g><!--entity ??????--><g id="elem_&#12456;&#12540;&#12472;&#12455;&#12531;&#12488;"><rect fill="#FFFFFF" height="41" rx="2.5" ry="2.5" style="stroke:#000000;stroke-width:0.5;" width="104" x="114" y="631.5"/><text fill="#000000" font-family="Meiryo" font-size="14" lengthAdjust="spacing" textLength="84" x="124" y="656.3408">&#12456;&#12540;&#12472;&#12455;&#12531;&#12488;</text></g><!--entity ???--><g id="elem_&#12494;&#12540;&#12489;"><polygon fill="#FFFFFF" points="125,742.5,135,732.5,207,732.5,207,773.5,197,783.5,125,783.5,125,742.5" style="stroke:#000000;stroke-width:0.5;"/><line style="stroke:#000000;stroke-width:0.5;" x1="197" x2="207" y1="742.5" y2="732.5"/><line style="stroke:#000000;stroke-width:0.5;" x1="125" x2="197" y1="742.5" y2="742.5"/><line style="stroke:#000000;stroke-width:0.5;" x1="197" x2="197" y1="742.5" y2="783.5"/><text fill="#000000" font-family="Meiryo" font-size="14" lengthAdjust="spacing" textLength="42" x="140" y="767.3408">&#12494;&#12540;&#12489;</text></g><!--entity ????--><g id="elem_&#12463;&#12521;&#12454;&#12489;"><path d="M132.6134,852.8809 C135.1922,847.345 138.9522,846.7931 143.3108,850.9081 C146.2528,843.6478 151.0415,844.2728 155.6069,849.281 C158.5164,844.115 162.0619,842.6394 166.5632,847.5501 C171.3204,841.7107 175.6777,843.268 178.6082,849.3895 C182.5357,843.6855 188.2674,844.6748 190.9472,850.7018 C195.2666,847.0036 199.4325,847.8144 201.0668,853.5745 C212.49,853.7352 214.4399,861.938 209.3452,870.2827 C214.3113,879.4855 211.7488,885.1509 201.2941,886.8678 C199.2917,892.1717 195.0495,894.4855 190.4151,889.7079 C188.4714,896.0667 183.1059,897.6219 177.9079,893.6465 C176.8562,899.0431 172.0572,900.5183 168.1847,896.5868 C163.4647,902.7004 157.6287,900.9928 155.6267,893.9854 C150.6212,897.7879 146.8687,897.8166 144.5288,891.1577 C138.8408,894.7243 135.2552,893.5204 133.0182,887.1573 C122.6414,885.5142 119.1921,878.0175 125.6598,869.3958 C119.8902,860.6384 122.5672,854.979 132.6134,852.8809 " fill="#FFFFFF" style="stroke:#000000;stroke-width:0.5;"/><text fill="#000000" font-family="Meiryo" font-size="14" lengthAdjust="spacing" textLength="56" x="138" y="873.3408">&#12463;&#12521;&#12454;&#12489;</text></g><!--entity ???????--><g id="elem_&#12467;&#12531;&#12509;&#12540;&#12493;&#12531;&#12488;"><rect fill="#FFFFFF" height="51" rx="2.5" ry="2.5" style="stroke:#000000;stroke-width:0.5;" width="138" x="97" y="954.5"/><rect fill="#FFFFFF" height="10" style="stroke:#000000;stroke-width:0.5;" width="15" x="215" y="959.5"/><rect fill="#FFFFFF" height="2" style="stroke:#000000;stroke-width:0.5;" width="4" x="213" y="961.5"/><rect fill="#FFFFFF" height="2" style="stroke:#000000;stroke-width:0.5;" width="4" x="213" y="965.5"/><text fill="#000000" font-family="Meiryo" font-size="14" lengthAdjust="spacing" textLength="98" x="112" y="989.3408">&#12467;&#12531;&#12509;&#12540;&#12493;&#12531;&#12488;</text></g><!--entity ??????--><g id="elem_&#12467;&#12531;&#12488;&#12525;&#12540;&#12523;"><ellipse cx="166" cy="1081.5" fill="#FFFFFF" rx="12" ry="12" style="stroke:#000000;stroke-width:0.5;"/><polygon fill="#000000" points="162,1069.5,168,1064.5,166,1069.5,168,1074.5,162,1069.5" style="stroke:#000000;stroke-width:1.0;"/><text fill="#000000" font-family="Meiryo" font-size="14" lengthAdjust="spacing" textLength="84" x="124" y="1112.3408">&#12467;&#12531;&#12488;&#12525;&#12540;&#12523;</text></g><!--entity ??????--><g id="elem_&#12487;&#12540;&#12479;&#12505;&#12540;&#12473;"><path d="M114,1188.5 C114,1178.5 166,1178.5 166,1178.5 C166,1178.5 218,1178.5 218,1188.5 L218,1218.5 C218,1228.5 166,1228.5 166,1228.5 C166,1228.5 114,1228.5 114,1218.5 L114,1188.5 " fill="#FFFFFF" style="stroke:#000000;stroke-width:0.5;"/><path d="M114,1188.5 C114,1198.5 166,1198.5 166,1198.5 C166,1198.5 218,1198.5 218,1188.5 " fill="none" style="stroke:#000000;stroke-width:0.5;"/><text fill="#000000" font-family="Meiryo" font-size="14" lengthAdjust="spacing" textLength="84" x="124" y="1217.3408">&#12487;&#12540;&#12479;&#12505;&#12540;&#12473;</text></g><!--entity ??????--><g id="elem_&#12456;&#12531;&#12486;&#12451;&#12486;&#12451;"><ellipse cx="166" cy="1304.5" fill="#FFFFFF" rx="12" ry="12" style="stroke:#000000;stroke-width:0.5;"/><line style="stroke:#000000;stroke-width:0.5;" x1="154" x2="178" y1="1318.5" y2="1318.5"/><text fill="#000000" font-family="Meiryo" font-size="14" lengthAdjust="spacing" textLength="84" x="124" y="1335.3408">&#12456;&#12531;&#12486;&#12451;&#12486;&#12451;</text></g><!--entity ????--><g id="elem_&#12501;&#12449;&#12452;&#12523;"><path d="M128,1404 L128,1440 A2.5,2.5 0 0 0 130.5,1442.5 L201.5,1442.5 A2.5,2.5 0 0 0 204,1440 L204,1411.5 L194,1401.5 L130.5,1401.5 A2.5,2.5 0 0 0 128,1404 " fill="#FFFFFF" style="stroke:#000000;stroke-width:0.5;"/><path d="M194,1401.5 L194,1409 A2.5,2.5 0 0 0 196.5,1411.5 L204,1411.5 " fill="#FFFFFF" style="stroke:#000000;stroke-width:0.5;"/><text fill="#000000" font-family="Meiryo" font-size="14" lengthAdjust="spacing" textLength="56" x="138" y="1426.3408">&#12501;&#12449;&#12452;&#12523;</text></g><!--entity ?????--><g id="elem_&#12501;&#12457;&#12523;&#12480;&#12540;"><path d="M118.5,1502.5 L159.5,1502.5 A3.75,3.75 0 0 1 162,1505 L169,1523.5 L213.5,1523.5 A2.5,2.5 0 0 1 216,1526 L216,1559 A2.5,2.5 0 0 1 213.5,1561.5 L118.5,1561.5 A2.5,2.5 0 0 1 116,1559 L116,1505 A2.5,2.5 0 0 1 118.5,1502.5 " fill="#FFFFFF" style="stroke:#000000;stroke-width:0.5;"/><line style="stroke:#000000;stroke-width:0.5;" x1="116" x2="169" y1="1523.5" y2="1523.5"/><text fill="#000000" font-family="Meiryo" font-size="14" lengthAdjust="spacing" textLength="70" x="126" y="1545.3408">&#12501;&#12457;&#12523;&#12480;&#12540;</text></g><!--entity boundary--><g id="elem_boundary"><path d="M455.5,380.5 L455.5,404.5 M455.5,392.5 L472.5,392.5 " fill="none" style="stroke:#000000;stroke-width:0.5;"/><ellipse cx="484.5" cy="392.5" fill="#FFFFFF" rx="12" ry="12" style="stroke:#000000;stroke-width:0.5;"/><text fill="#000000" font-family="Meiryo" font-size="14" lengthAdjust="spacing" textLength="66" x="443" y="423.3408">boundary</text></g><!--entity ????--><g id="elem_&#12501;&#12524;&#12540;&#12512;"><rect fill="#FFFFFF" height="51" rx="2.5" ry="2.5" style="stroke:#000000;stroke-width:0.5;" width="96" x="7" y="123.5"/><path d="M39,123.5 L39,128.5 L32,135.5 L7,135.5 " fill="none" style="stroke:#000000;stroke-width:0.5;"/><text fill="#000000" font-family="Meiryo" font-size="14" lengthAdjust="spacing" textLength="56" x="22" y="158.3408">&#12501;&#12524;&#12540;&#12512;</text></g><!--entity ????????--><g id="elem_&#12452;&#12531;&#12479;&#12540;&#12501;&#12455;&#12540;&#12473;"><ellipse cx="476" cy="537.5" fill="#FFFFFF" rx="8" ry="8" style="stroke:#000000;stroke-width:0.5;"/><text fill="#000000" font-family="Meiryo" font-size="14" lengthAdjust="spacing" textLength="112" x="420" y="569.3408">&#12452;&#12531;&#12479;&#12540;&#12501;&#12455;&#12540;&#12473;</text></g><!--entity ?????--><g id="elem_&#12497;&#12483;&#12465;&#12540;&#12472;"><path d="M112.5,1621.5 L195.5,1621.5 A3.75,3.75 0 0 1 198,1624 L205,1648.5 L219.5,1648.5 A2.5,2.5 0 0 1 222,1651 L222,1663 A2.5,2.5 0 0 1 219.5,1665.5 L112.5,1665.5 A2.5,2.5 0 0 1 110,1663 L110,1624 A2.5,2.5 0 0 1 112.5,1621.5 " fill="#FFFFFF" style="stroke:#000000;stroke-width:0.5;"/><line style="stroke:#000000;stroke-width:0.5;" x1="110" x2="205" y1="1648.5" y2="1648.5"/><text fill="#000000" font-family="Meiryo" font-size="14" font-weight="bold" lengthAdjust="spacing" textLength="70" x="120" y="1639.3408">&#12497;&#12483;&#12465;&#12540;&#12472;</text></g><!--entity ???--><g id="elem_&#12461;&#12517;&#12540;"><path d="M373,133.5 L425,133.5 C430,133.5 430,149 430,149 C430,149 430,164.5 425,164.5 L373,164.5 C368,164.5 368,149 368,149 C368,149 368,133.5 373,133.5 " fill="#FFFFFF" style="stroke:#000000;stroke-width:0.5;"/><path d="M425,133.5 C420,133.5 420,149 420,149 C420,164.5 425,164.5 425,164.5 " fill="none" style="stroke:#000000;stroke-width:0.5;"/><text fill="#000000" font-family="Meiryo" font-size="14" lengthAdjust="spacing" textLength="42" x="373" y="153.3408">&#12461;&#12517;&#12540;</text></g><!--entity ????--><g id="elem_&#12473;&#12479;&#12483;&#12463;"><rect fill="#FFFFFF" height="41" rx="2.5" ry="2.5" style="stroke:none;stroke-width:0.5;" width="76" x="472" y="249.5"/><path d="M457,249.5 L469.5,249.5 A2.5,2.5 0 0 1 472,252 L472,288 A2.5,2.5 0 0 0 474.5,290.5 L545.5,290.5 A2.5,2.5 0 0 0 548,288 L548,252 A2.5,2.5 0 0 1 550.5,249.5 L563,249.5 " fill="none" style="stroke:#000000;stroke-width:0.5;"/><text fill="#000000" font-family="Meiryo" font-size="14" lengthAdjust="spacing" textLength="56" x="482" y="274.3408">&#12473;&#12479;&#12483;&#12463;</text></g><!--entity ??????--><g id="elem_&#12524;&#12463;&#12479;&#12531;&#12464;&#12523;"><rect fill="#FFFFFF" height="41" rx="2.5" ry="2.5" style="stroke:#000000;stroke-width:0.5;" width="104" x="229" y="128.5"/><text fill="#000000" font-family="Meiryo" font-size="14" lengthAdjust="spacing" textLength="84" x="239" y="153.3408">&#12524;&#12463;&#12479;&#12531;&#12464;&#12523;</text></g><!--entity ?????--><g id="elem_&#12473;&#12488;&#12524;&#12540;&#12472;"><rect fill="#FFFFFF" height="41" rx="35" ry="35" style="stroke:#000000;stroke-width:0.5;" width="90" x="465" y="128.5"/><text fill="#000000" font-family="Meiryo" font-size="14" lengthAdjust="spacing" textLength="70" x="475" y="153.3408">&#12473;&#12488;&#12524;&#12540;&#12472;</text></g><g id="elem_GMN40"><path d="M1051.5,388.5 L1051.5,418 L1176.5,418 L1176.5,398.5 L1166.5,388.5 L1051.5,388.5 " fill="#DCF8F8" style="stroke:#000000;stroke-width:0.5;"/><path d="M1166.5,388.5 L1166.5,398.5 L1176.5,398.5 L1166.5,388.5 " fill="#DCF8F8" style="stroke:#000000;stroke-width:1.0;"/><text fill="#000000" font-family="Meiryo" font-size="13" lengthAdjust="spacing" textLength="104" x="1057.5" y="407.2808">&#12494;&#12540;&#12488;&#12418;&#26360;&#12369;&#12414;&#12377;</text></g><g id="elem_GMN44"><path d="M891.5,388.5 L891.5,418 L1016.5,418 L1016.5,398.5 L1006.5,388.5 L891.5,388.5 " fill="#DCF8F8" style="stroke:#000000;stroke-width:0.5;"/><path d="M1006.5,388.5 L1006.5,398.5 L1016.5,398.5 L1006.5,388.5 " fill="#DCF8F8" style="stroke:#000000;stroke-width:1.0;"/><text fill="#000000" font-family="Meiryo" font-size="13" lengthAdjust="spacing" textLength="104" x="897.5" y="407.2808">&#12494;&#12540;&#12488;&#12418;&#26360;&#12369;&#12414;&#12377;</text></g><!--link ???? to ??????--><g id="link_&#12450;&#12463;&#12479;&#12540;_&#12518;&#12540;&#12473;&#12465;&#12540;&#12473;"><path d="M166,189.63 C166,189.63 166,245.99 166,245.99 " fill="none" id="&#12450;&#12463;&#12479;&#12540;-to-&#12518;&#12540;&#12473;&#12465;&#12540;&#12473;" style="stroke:#000000;stroke-width:1.0;"/><polygon fill="#000000" points="166,250.99,170,241.99,166,245.99,162,241.99,166,250.99" style="stroke:#000000;stroke-width:1.0;"/></g><!--reverse link ???? to ????--><g id="link_&#12501;&#12524;&#12540;&#12512;_&#12450;&#12463;&#12479;&#12540;"><path d="M108.04,149.5 C108.04,149.5 137.72,149.5 137.72,149.5 " fill="none" id="&#12501;&#12524;&#12540;&#12512;-backto-&#12450;&#12463;&#12479;&#12540;" style="stroke:#000000;stroke-width:1.0;"/><polygon fill="#000000" points="103.04,149.5,112.04,153.5,108.04,149.5,112.04,145.5,103.04,149.5" style="stroke:#000000;stroke-width:1.0;"/></g><!--link ???? to ??????--><g id="link_&#12450;&#12463;&#12479;&#12540;_&#12524;&#12463;&#12479;&#12531;&#12464;&#12523;"><path d="M194.13,149.5 C194.13,149.5 223.91,149.5 223.91,149.5 " fill="none" id="&#12450;&#12463;&#12479;&#12540;-to-&#12524;&#12463;&#12479;&#12531;&#12464;&#12523;" style="stroke:#000000;stroke-width:1.0;"/><polygon fill="#000000" points="228.91,149.5,219.91,145.5,223.91,149.5,219.91,153.5,228.91,149.5" style="stroke:#000000;stroke-width:1.0;"/></g><!--link ?????? to ???--><g id="link_&#12524;&#12463;&#12479;&#12531;&#12464;&#12523;_&#12461;&#12517;&#12540;"><path d="M333.1,149.5 C333.1,149.5 362.84,149.5 362.84,149.5 " fill="none" id="&#12524;&#12463;&#12479;&#12531;&#12464;&#12523;-to-&#12461;&#12517;&#12540;" style="stroke:#000000;stroke-width:1.0;"/><polygon fill="#000000" points="367.84,149.5,358.84,145.5,362.84,149.5,358.84,153.5,367.84,149.5" style="stroke:#000000;stroke-width:1.0;"/></g><!--link ??? to ?????--><g id="link_&#12461;&#12517;&#12540;_&#12473;&#12488;&#12524;&#12540;&#12472;"><path d="M430.22,149.5 C430.22,149.5 459.94,149.5 459.94,149.5 " fill="none" id="&#12461;&#12517;&#12540;-to-&#12473;&#12488;&#12524;&#12540;&#12472;" style="stroke:#000000;stroke-width:1.0;"/><polygon fill="#000000" points="464.94,149.5,455.94,145.5,459.94,149.5,455.94,153.5,464.94,149.5" style="stroke:#000000;stroke-width:1.0;"/></g><!--link ????? to ????--><g id="link_&#12473;&#12488;&#12524;&#12540;&#12472;_&#12473;&#12479;&#12483;&#12463;"><path d="M510,169.53 C510,169.53 510,244.37 510,244.37 " fill="none" id="&#12473;&#12488;&#12524;&#12540;&#12472;-to-&#12473;&#12479;&#12483;&#12463;" style="stroke:#000000;stroke-width:1.0;"/><polygon fill="#000000" points="510,249.37,514,240.37,510,244.37,506,240.37,510,249.37" style="stroke:#000000;stroke-width:1.0;"/></g><!--link ???? to ????????--><g id="link_&#12473;&#12479;&#12483;&#12463;_&#20837;&#12428;&#23376;&#12364;&#21487;&#33021;&#12391;&#12377;"><path d="M544,290.78 C544,295.2363 544,300.2236 544,305.5522 C544,308.2165 544,310.9662 544,313.7774 C544,313.9531 544,314.1291 544,314.3052 " fill="none" id="&#12473;&#12479;&#12483;&#12463;-to-&#20837;&#12428;&#23376;&#12364;&#21487;&#33021;&#12391;&#12377;" style="stroke:#000000;stroke-width:1.0;"/><polygon fill="#000000" points="544,314.3052,548,305.3052,544,309.3052,540,305.3052,544,314.3052" style="stroke:#000000;stroke-width:1.0;"/></g><!--link ???? to boundary--><g id="link_&#12473;&#12479;&#12483;&#12463;_boundary"><path d="M483,290.78 C483,290.78 483,371.41 483,371.41 " fill="none" id="&#12473;&#12479;&#12483;&#12463;-to-boundary" style="stroke:#000000;stroke-width:1.0;"/><polygon fill="#000000" points="483,376.41,487,367.41,483,371.41,479,367.41,483,376.41" style="stroke:#000000;stroke-width:1.0;"/></g><!--link boundary to ????????--><g id="link_boundary_&#12452;&#12531;&#12479;&#12540;&#12501;&#12455;&#12540;&#12473;"><path d="M476,429.57 C476,429.57 476,523.36 476,523.36 " fill="none" id="boundary-to-&#12452;&#12531;&#12479;&#12540;&#12501;&#12455;&#12540;&#12473;" style="stroke:#000000;stroke-width:1.0;"/><polygon fill="#000000" points="476,528.36,480,519.36,476,523.36,472,519.36,476,528.36" style="stroke:#000000;stroke-width:1.0;"/></g><!--link ?????? to ???--><g id="link_&#12518;&#12540;&#12473;&#12465;&#12540;&#12473;_&#23550;&#35937;&#29289;"><path d="M166,289.06 C166,313.33 166,355.21 166,380.88 " fill="none" id="&#12518;&#12540;&#12473;&#12465;&#12540;&#12473;-&#23550;&#35937;&#29289;" style="stroke:#000000;stroke-width:1.0;"/></g><!--link ??? to ???--><g id="link_&#23550;&#35937;&#29289;_&#12459;&#12540;&#12489;"><path d="M166,425.21 C166,453.26 166,500.67 166,523.88 " fill="none" id="&#23550;&#35937;&#29289;-&#12459;&#12540;&#12489;" style="stroke:#000000;stroke-width:1.0;stroke-dasharray:7.0,7.0;"/></g><!--link ??? to ??????--><g id="link_&#12459;&#12540;&#12489;_&#12456;&#12540;&#12472;&#12455;&#12531;&#12488;"><path d="M166,551.08 C166,570.99 166,608.23 166,631.48 " fill="none" id="&#12459;&#12540;&#12489;-&#12456;&#12540;&#12472;&#12455;&#12531;&#12488;" style="stroke:#000000;stroke-width:1.0;stroke-dasharray:1.0,3.0;"/></g><!--link ???3 to GMN40--><g id="link_&#23376;&#35201;&#32032;3_GMN40"><path d="M842.52,423.5 C923.33,423.5 1114,423.5 1114,423.5 C1114,423.5 1114,421.08 1114,417.9 " fill="none" id="&#23376;&#35201;&#32032;3-GMN40" style="stroke:#000000;stroke-width:1.0;stroke-dasharray:7.0,7.0;"/></g><!--link ?????? to ???--><g id="link_&#12456;&#12540;&#12472;&#12455;&#12531;&#12488;_&#12494;&#12540;&#12489;"><path d="M166,672.69 C166,689.8 166,714.18 166,732.49 " fill="none" id="&#12456;&#12540;&#12472;&#12455;&#12531;&#12488;-&#12494;&#12540;&#12489;" style="stroke:#000000;stroke-width:2.0;"/></g><!--link GMN44 to GMN40--><g id="link_GMN44_GMN40"><path d="M1016.78,403.5 C1028.16,403.5 1040.03,403.5 1051.4,403.5 " fill="none" id="GMN44-GMN40" style="stroke:#000000;stroke-width:1.0;stroke-dasharray:7.0,7.0;"/></g><!--link ??? to ????--><g id="link_&#12494;&#12540;&#12489;_&#12463;&#12521;&#12454;&#12489;"><path d="M166,783.74 C166,783.74 166,830.39 166,830.39 " fill="none" id="&#12494;&#12540;&#12489;-to-&#12463;&#12521;&#12454;&#12489;" style="stroke:#000000;stroke-width:1.0;"/><polygon fill="#000000" points="166,843.39,170.0066,837.3944,166.0132,831.39,162.0066,837.3856,166,843.39" style="stroke:#000000;stroke-width:1.0;"/></g><!--link ???? to ???????--><g id="link_&#12463;&#12521;&#12454;&#12489;_&#12467;&#12531;&#12509;&#12540;&#12493;&#12531;&#12488;"><path d="M166,894.74 C166,894.74 166,941.39 166,941.39 " fill="none" id="&#12463;&#12521;&#12454;&#12489;-to-&#12467;&#12531;&#12509;&#12540;&#12493;&#12531;&#12488;" style="stroke:#000000;stroke-width:1.0;"/><polygon fill="none" points="166,954.39,170.0066,948.3944,166.0132,942.39,162.0066,948.3856,166,954.39" style="stroke:#000000;stroke-width:1.0;"/></g><!--link ??????? to ??????--><g id="link_&#12467;&#12531;&#12509;&#12540;&#12493;&#12531;&#12488;_&#12467;&#12531;&#12488;&#12525;&#12540;&#12523;"><path d="M166,1005.7 C166,1005.7 166,1050.26 166,1050.26 " fill="none" id="&#12467;&#12531;&#12509;&#12540;&#12493;&#12531;&#12488;-to-&#12467;&#12531;&#12488;&#12525;&#12540;&#12523;" style="stroke:#000000;stroke-width:1.0;"/><ellipse cx="166" cy="1057.26" fill="#FFFFFF" rx="8" ry="8" style="stroke:#000000;stroke-width:1.0;"/><line style="stroke:#000000;stroke-width:1.0;" x1="166" x2="166" y1="1049.26" y2="1065.26"/><line style="stroke:#000000;stroke-width:1.0;" x1="174" x2="158" y1="1057.26" y2="1057.26"/></g><!--link ?????? to ??????--><g id="link_&#12467;&#12531;&#12488;&#12525;&#12540;&#12523;_&#12487;&#12540;&#12479;&#12505;&#12540;&#12473;"><path d="M166,1118.71 C166,1118.71 166,1173.16 166,1173.16 " fill="none" id="&#12467;&#12531;&#12488;&#12525;&#12540;&#12523;-to-&#12487;&#12540;&#12479;&#12505;&#12540;&#12473;" style="stroke:#000000;stroke-width:1.0;"/><rect fill="#FFFFFF" height="10" style="stroke:#000000;stroke-width:1.5;" width="10" x="161" y="1173.16"/></g><!--link ?????? to ??????--><g id="link_&#12487;&#12540;&#12479;&#12505;&#12540;&#12473;_&#12456;&#12531;&#12486;&#12451;&#12486;&#12451;"><path d="M166,1228.52 C166,1228.52 166,1280.11 166,1280.11 " fill="none" id="&#12487;&#12540;&#12479;&#12505;&#12540;&#12473;-to-&#12456;&#12531;&#12486;&#12451;&#12486;&#12451;" style="stroke:#000000;stroke-width:1.0;"/><polygon fill="#000000" points="166,1288.11,169,1280.11,163,1280.11,166,1288.11" style="stroke:#000000;stroke-width:1.0;"/></g><!--link ?????? to ????--><g id="link_&#12456;&#12531;&#12486;&#12451;&#12486;&#12451;_&#12501;&#12449;&#12452;&#12523;"><path d="M166,1341.72 C166,1341.72 166,1396.32 166,1396.32 " fill="none" id="&#12456;&#12531;&#12486;&#12451;&#12486;&#12451;-to-&#12501;&#12449;&#12452;&#12523;" style="stroke:#000000;stroke-width:1.0;"/><ellipse cx="166" cy="1395.32" fill="#FFFFFF" rx="6" ry="6" style="stroke:#000000;stroke-width:1.5;"/></g><!--link ???? to ?????--><g id="link_&#12501;&#12449;&#12452;&#12523;_&#12501;&#12457;&#12523;&#12480;&#12540;"><path d="M166,1442.69 C166,1442.69 166,1488.27 166,1488.27 " fill="none" id="&#12501;&#12449;&#12452;&#12523;-to-&#12501;&#12457;&#12523;&#12480;&#12540;" style="stroke:#000000;stroke-width:1.0;"/><polygon fill="none" points="173,1488.27,166,1508.27,159,1488.27,173,1488.27" style="stroke:#000000;stroke-width:1.0;"/></g><!--link ????? to ?????--><g id="link_&#12501;&#12457;&#12523;&#12480;&#12540;_&#12497;&#12483;&#12465;&#12540;&#12472;"><path d="M166,1561.59 C166,1561.59 166,1616.21 166,1616.21 " fill="none" id="&#12501;&#12457;&#12523;&#12480;&#12540;-to-&#12497;&#12483;&#12465;&#12540;&#12472;" style="stroke:#000000;stroke-width:1.0;"/><ellipse cx="166" cy="1621.21" fill="#FFFFFF" rx="6" ry="6" style="stroke:#000000;stroke-width:1.5;"/><path d="M173.0711,1614.1389 A10,10 0 0 0 158.9289 1614.1389" fill="#FFFFFF" style="stroke:#000000;stroke-width:1.5;"/></g><text fill="#888888" font-family="Meiryo" font-size="10" lengthAdjust="spacing" textLength="3" x="1036.5" y="1682.1006">&#160;</text><text fill="#888888" font-family="Meiryo" font-size="10" lengthAdjust="spacing" textLength="3" x="1036.5" y="1697.1006">&#160;</text><text fill="#888888" font-family="Meiryo" font-size="10" font-weight="bold" lengthAdjust="spacing" textLength="253" x="906.5" y="1712.1006">Copyright &#169; 2023 takashno All Right Reserved.</text><text fill="#888888" font-family="Meiryo" font-size="10" lengthAdjust="spacing" textLength="10" x="1159.5" y="1712.1006">&#12288;</text><!--SRC=[fLRTRXD75BwVfnXD959H9Gv1GhHDB16athKN8CHTfR5trbvbisF6Or24YknT1P92coArLG4XXG89QK83IY_Ibf276PQuRz4pCrxRwwnLCVZ2cZrp_d- -CwL9FFL1FpnPGfCuVVHt-iT35RzGoUyg_WsXIPNygf949MsLl45rHZqc49hpUIHnbOTSp0lcbTELtNz_kJjNqkGoGeX5NiQgDVoiDSH7MeC8QdM9VSwbkPohb2_onhAbdfeuS-wpB_3ipEnPBEaYRTOZZY-48RvahY-n9XFNcJSzLwgKLRkjhMIAIcxXglWlxLVyJ2Kxmq6dHolTpOxgmETQz-Wm_Mu3eUPY43Mee4lu9lAOJrkX_1B2_PekCVmL2yGoHnU4u3SkwgpWIaYhY-XodNhy1evun53Jd8EeXdqQDXaAWuZ9vGR3NCWwHzyE6Q121ZwjIh2q06fgWhSYp-gzMWyaGmjSG78jPS5OoebN9T3TPAjKUAvcQonoTRcYsQbOTXHlDLcLDfbhp7of0HLoTjxd8Tmw2WSHD30KszLvN-W6T0myv2tNQZSbK1nbhxLOozLdmQgIHhNGLTwZabO-fbSYANZeMgp0sMzepq2wpaV4FLUx3I30P3jt2HVkqX60Uu7eX5Vrp_ld2uLTDy7xzVNZd_uPtW4uNO-xxGGETIaRdvTAZP16ihKKJWDUb01nfZJaJ7a1hO6l4rSi1244PO8YlpiyKfrL5T-5FNByvyQxWtPtSmiX2yq4BAXupwv4WZBq8YhP189PIg_jWQ3-BY3ftjlkwoV7Qzi46PG6BJkQAra3BeEznFWFSWSgtbB9lafM2JAr1zK_PBnswebs8DbMyQObzZ4GBlQDx6CZy7sc9-ly_lsgIbuQbXs2-bC5XkuO5o2q1raClTwrxe7aRHK_jVy4cP4W-eqGFx6B66WMK2rrM-zcy_mWgBycI7O2PWE0XZVPDVvi43H0LMAKxjjS6uLRcLjPQuFiVVD2iKa_8CW258X2WC-DPGjtfFTWqCnx10smY6ZRlOg2hLScZApvZPHErswcl-Tqkl9SnVVIbp-gphrqVQ-R7AhEbkeyW9xlRLC2bxQ3pX3KM-m3sYpG1fdlayyIFGWetsKm5UNY3Xlb2vdb7CxdA8zvi5csat4N4OT51baTEkSOHj9rWj8B9bUC_AVb69VWOkv1JmsEcQLnFLIKKP39JUlG6KzFv-Psw8nltHetm822zeLy4sLp3D0Iltzqe3htLUSjH0GLBnB6y_EvsJUwGkR_hwg-20HpUXGiyf_0mSUYnXWwo7nQZ2H5HE2UA4QM8g8kMRaOR8g8m3up2a3vJ-3ufW2CJb20xvEP0ZJv3m00]--></g></svg>