<?xml version="1.0" encoding="us-ascii" standalone="no"?><svg xmlns="http://www.w3.org/2000/svg" xmlns:xlink="http://www.w3.org/1999/xlink" contentStyleType="text/css" height="1616px" preserveAspectRatio="none" style="width:1183px;height:1616px;background:#FFFFFF;" version="1.1" viewBox="0 0 1183 1616" width="1183px" zoomAndPan="magnify"><defs/><g><text fill="#888888" font-family="Meiryo" font-size="10" lengthAdjust="spacing" textLength="3" x="1166.5" y="9.2822">&#160;</text><text fill="#FF0000" font-family="Meiryo" font-size="10" lengthAdjust="spacing" textLength="20" x="1149.5" y="20.9229">&#20844;&#38283;</text><text fill="#888888" font-family="Meiryo" font-size="10" lengthAdjust="spacing" textLength="3" x="1166.5" y="32.5635">&#160;</text><text fill="#888888" font-family="Meiryo" font-size="10" lengthAdjust="spacing" textLength="3" x="1166.5" y="44.2041">&#160;</text><text fill="#000000" font-family="Meiryo" font-size="14" font-weight="bold" lengthAdjust="spacing" textLength="98" x="535.75" y="70.5576">&#20351;&#12360;&#12427;&#35201;&#32032;&#19968;&#35239;</text><!--cluster ????????--><g id="cluster_&#20837;&#12428;&#23376;&#12364;&#21487;&#33021;&#12391;&#12377;"><rect fill="#FFFFFF" height="143" rx="2.5" ry="2.5" style="stroke:#000000;stroke-width:1.0;" width="331" x="536" y="286.3594"/><path d="M658,286.3594 L658,295.6563 L648,305.6563 L536,305.6563 " fill="none" style="stroke:#000000;stroke-width:1.0;"/><text fill="#000000" font-family="Meiryo" font-size="14" font-weight="bold" lengthAdjust="spacing" textLength="112" x="539" y="300.3545">&#20837;&#12428;&#23376;&#12364;&#21487;&#33021;&#12391;&#12377;</text></g><!--entity ???1--><g id="elem_&#23376;&#35201;&#32032;1"><rect fill="#FFFFFF" height="36.2969" rx="2.5" ry="2.5" style="stroke:#000000;stroke-width:0.5;" width="71" x="665.5" y="349.3594"/><text fill="#000000" font-family="Meiryo" font-size="14" lengthAdjust="spacing" textLength="51" x="675.5" y="372.3545">&#23376;&#35201;&#32032;1</text></g><!--entity ???2--><g id="elem_&#23376;&#35201;&#32032;2"><ellipse cx="605" cy="337.8594" fill="#FFFFFF" rx="8" ry="8" style="stroke:#000000;stroke-width:0.5;"/><path d="M605,345.8594 L605,372.8594 M592,353.8594 L618,353.8594 M605,372.8594 L592,387.8594 M605,372.8594 L618,387.8594 " fill="none" style="stroke:#000000;stroke-width:0.5;"/><text fill="#000000" font-family="Meiryo" font-size="14" lengthAdjust="spacing" textLength="51" x="579.5" y="402.3545">&#23376;&#35201;&#32032;2</text></g><!--entity ???3--><g id="elem_&#23376;&#35201;&#32032;3"><path d="M771.5,354.8594 C771.5,344.8594 807,344.8594 807,344.8594 C807,344.8594 842.5,344.8594 842.5,354.8594 L842.5,380.1563 C842.5,390.1563 807,390.1563 807,390.1563 C807,390.1563 771.5,390.1563 771.5,380.1563 L771.5,354.8594 " fill="#FFFFFF" style="stroke:#000000;stroke-width:0.5;"/><path d="M771.5,354.8594 C771.5,364.8594 807,364.8594 807,364.8594 C807,364.8594 842.5,364.8594 842.5,354.8594 " fill="none" style="stroke:#000000;stroke-width:0.5;"/><text fill="#000000" font-family="Meiryo" font-size="14" lengthAdjust="spacing" textLength="51" x="781.5" y="381.8545">&#23376;&#35201;&#32032;3</text></g><!--entity ????--><g id="elem_&#12450;&#12463;&#12479;&#12540;"><ellipse cx="166" cy="98.8594" fill="#FFFFFF" rx="8" ry="8" style="stroke:#000000;stroke-width:0.5;"/><path d="M166,106.8594 L166,133.8594 M153,114.8594 L179,114.8594 M166,133.8594 L153,148.8594 M166,133.8594 L179,148.8594 " fill="none" style="stroke:#000000;stroke-width:0.5;"/><text fill="#000000" font-family="Meiryo" font-size="14" lengthAdjust="spacing" textLength="56" x="138" y="163.3545">&#12450;&#12463;&#12479;&#12540;</text></g><g id="elem_&#12518;&#12540;&#12473;&#12465;&#12540;&#12473;"><ellipse cx="165.8142" cy="244.1222" fill="#FFFFFF" rx="66.8142" ry="15.7628" style="stroke:#000000;stroke-width:0.5;"/><text fill="#000000" font-family="Meiryo" font-size="14" lengthAdjust="spacing" textLength="84" x="120.8142" y="247.8698">&#12518;&#12540;&#12473;&#12465;&#12540;&#12473;</text></g><!--entity ???--><g id="elem_&#23550;&#35937;&#29289;"><rect fill="#FFFFFF" height="39.2969" rx="2.5" ry="2.5" style="stroke:#000000;stroke-width:0.5;" width="72" x="130" y="347.8594"/><polygon fill="#FFFFFF" points="185,352.8594,185,366.8594,197,366.8594,197,358.8594,191,352.8594,185,352.8594" style="stroke:#000000;stroke-width:0.5;"/><line style="stroke:#000000;stroke-width:0.5;" x1="191" x2="191" y1="352.8594" y2="358.8594"/><line style="stroke:#000000;stroke-width:0.5;" x1="197" x2="191" y1="358.8594" y2="358.8594"/><text fill="#000000" font-family="Meiryo" font-size="14" lengthAdjust="spacing" textLength="42" x="140" y="373.8545">&#23550;&#35937;&#29289;</text></g><!--entity ???--><g id="elem_&#12459;&#12540;&#12489;"><rect fill="#FFFFFF" height="22.2969" rx="2.5" ry="2.5" style="stroke:#000000;stroke-width:0.5;" width="62" x="135" y="483.3594"/><text fill="#000000" font-family="Meiryo" font-size="14" lengthAdjust="spacing" textLength="42" x="145" y="499.3545">&#12459;&#12540;&#12489;</text></g><!--entity ??????--><g id="elem_&#12456;&#12540;&#12472;&#12455;&#12531;&#12488;"><rect fill="#FFFFFF" height="36.2969" rx="2.5" ry="2.5" style="stroke:#000000;stroke-width:0.5;" width="104" x="114" y="583.3594"/><text fill="#000000" font-family="Meiryo" font-size="14" lengthAdjust="spacing" textLength="84" x="124" y="606.3545">&#12456;&#12540;&#12472;&#12455;&#12531;&#12488;</text></g><!--entity ???--><g id="elem_&#12494;&#12540;&#12489;"><polygon fill="#FFFFFF" points="125,689.3594,135,679.3594,207,679.3594,207,715.6563,197,725.6563,125,725.6563,125,689.3594" style="stroke:#000000;stroke-width:0.5;"/><line style="stroke:#000000;stroke-width:0.5;" x1="197" x2="207" y1="689.3594" y2="679.3594"/><line style="stroke:#000000;stroke-width:0.5;" x1="125" x2="197" y1="689.3594" y2="689.3594"/><line style="stroke:#000000;stroke-width:0.5;" x1="197" x2="197" y1="689.3594" y2="725.6563"/><text fill="#000000" font-family="Meiryo" font-size="14" lengthAdjust="spacing" textLength="42" x="140" y="712.3545">&#12494;&#12540;&#12489;</text></g><!--entity ????--><g id="elem_&#12463;&#12521;&#12454;&#12489;"><path d="M132.4368,793.9133 C134.99,788.0448 140.0786,788.0415 143.4359,793.1042 C146.5984,785.9009 151.9223,786.9242 156.154,791.9964 C160.2845,786.0195 164.0178,786.6344 167.8486,792.2975 C171.3031,787.4751 174.5906,787.8342 177.7176,792.6335 C181.9693,787.5854 186.0529,786.4177 190.1122,792.8413 C193.5628,788.135 199.4772,788.4134 201.998,793.923 C211.8381,795.1698 213.4421,800.9027 208.2692,808.575 C213.2593,815.8213 212.5958,822.6749 202.3491,824.1174 C200.4474,830.8189 195.5186,832.0873 190.5849,827.1938 C188.2366,834.7719 183.3496,835.4834 177.8184,830.4042 C175.154,836.4569 171.0028,836.8677 166.3219,832.6647 C161.3387,837.0891 157.3949,834.7477 156.0142,829.0104 C150.6355,835.0194 146.2204,834.9697 142.6776,827.2296 C139.0172,831.0534 134.7933,831.0445 132.6149,825.6175 C121.7773,825.0625 118.9249,817.9418 123.8025,809.0352 C118.6789,799.9622 123.3059,794.8474 132.4368,793.9133 " fill="#FFFFFF" style="stroke:#000000;stroke-width:0.5;"/><text fill="#000000" font-family="Meiryo" font-size="14" lengthAdjust="spacing" textLength="56" x="138" y="813.3545">&#12463;&#12521;&#12454;&#12489;</text></g><!--entity ???????--><g id="elem_&#12467;&#12531;&#12509;&#12540;&#12493;&#12531;&#12488;"><rect fill="#FFFFFF" height="46.2969" rx="2.5" ry="2.5" style="stroke:#000000;stroke-width:0.5;" width="138" x="97" y="891.3594"/><rect fill="#FFFFFF" height="10" style="stroke:#000000;stroke-width:0.5;" width="15" x="215" y="896.3594"/><rect fill="#FFFFFF" height="2" style="stroke:#000000;stroke-width:0.5;" width="4" x="213" y="898.3594"/><rect fill="#FFFFFF" height="2" style="stroke:#000000;stroke-width:0.5;" width="4" x="213" y="902.3594"/><text fill="#000000" font-family="Meiryo" font-size="14" lengthAdjust="spacing" textLength="98" x="112" y="924.3545">&#12467;&#12531;&#12509;&#12540;&#12493;&#12531;&#12488;</text></g><!--entity ??????--><g id="elem_&#12467;&#12531;&#12488;&#12525;&#12540;&#12523;"><ellipse cx="166" cy="1013.3594" fill="#FFFFFF" rx="12" ry="12" style="stroke:#000000;stroke-width:0.5;"/><polygon fill="#000000" points="162,1001.3594,168,996.3594,166,1001.3594,168,1006.3594,162,1001.3594" style="stroke:#000000;stroke-width:1.0;"/><text fill="#000000" font-family="Meiryo" font-size="14" lengthAdjust="spacing" textLength="84" x="124" y="1042.3545">&#12467;&#12531;&#12488;&#12525;&#12540;&#12523;</text></g><!--entity ??????--><g id="elem_&#12487;&#12540;&#12479;&#12505;&#12540;&#12473;"><path d="M114,1115.3594 C114,1105.3594 166,1105.3594 166,1105.3594 C166,1105.3594 218,1105.3594 218,1115.3594 L218,1140.6563 C218,1150.6563 166,1150.6563 166,1150.6563 C166,1150.6563 114,1150.6563 114,1140.6563 L114,1115.3594 " fill="#FFFFFF" style="stroke:#000000;stroke-width:0.5;"/><path d="M114,1115.3594 C114,1125.3594 166,1125.3594 166,1125.3594 C166,1125.3594 218,1125.3594 218,1115.3594 " fill="none" style="stroke:#000000;stroke-width:0.5;"/><text fill="#000000" font-family="Meiryo" font-size="14" lengthAdjust="spacing" textLength="84" x="124" y="1142.3545">&#12487;&#12540;&#12479;&#12505;&#12540;&#12473;</text></g><!--entity ??????--><g id="elem_&#12456;&#12531;&#12486;&#12451;&#12486;&#12451;"><ellipse cx="166" cy="1226.3594" fill="#FFFFFF" rx="12" ry="12" style="stroke:#000000;stroke-width:0.5;"/><line style="stroke:#000000;stroke-width:0.5;" x1="154" x2="178" y1="1240.3594" y2="1240.3594"/><text fill="#000000" font-family="Meiryo" font-size="14" lengthAdjust="spacing" textLength="84" x="124" y="1255.3545">&#12456;&#12531;&#12486;&#12451;&#12486;&#12451;</text></g><!--entity ????--><g id="elem_&#12501;&#12449;&#12452;&#12523;"><path d="M128,1320.8594 L128,1352.1563 A2.5,2.5 0 0 0 130.5,1354.6563 L201.5,1354.6563 A2.5,2.5 0 0 0 204,1352.1563 L204,1328.3594 L194,1318.3594 L130.5,1318.3594 A2.5,2.5 0 0 0 128,1320.8594 " fill="#FFFFFF" style="stroke:#000000;stroke-width:0.5;"/><path d="M194,1318.3594 L194,1325.8594 A2.5,2.5 0 0 0 196.5,1328.3594 L204,1328.3594 " fill="#FFFFFF" style="stroke:#000000;stroke-width:0.5;"/><text fill="#000000" font-family="Meiryo" font-size="14" lengthAdjust="spacing" textLength="56" x="138" y="1341.3545">&#12501;&#12449;&#12452;&#12523;</text></g><!--entity ?????--><g id="elem_&#12501;&#12457;&#12523;&#12480;&#12540;"><path d="M118.5,1414.3594 L159.5,1414.3594 A3.75,3.75 0 0 1 162,1416.8594 L169,1435.3594 L213.5,1435.3594 A2.5,2.5 0 0 1 216,1437.8594 L216,1466.1563 A2.5,2.5 0 0 1 213.5,1468.6563 L118.5,1468.6563 A2.5,2.5 0 0 1 116,1466.1563 L116,1416.8594 A2.5,2.5 0 0 1 118.5,1414.3594 " fill="#FFFFFF" style="stroke:#000000;stroke-width:0.5;"/><line style="stroke:#000000;stroke-width:0.5;" x1="116" x2="169" y1="1435.3594" y2="1435.3594"/><text fill="#000000" font-family="Meiryo" font-size="14" lengthAdjust="spacing" textLength="70" x="126" y="1455.3545">&#12501;&#12457;&#12523;&#12480;&#12540;</text></g><!--entity boundary--><g id="elem_boundary"><path d="M455.5,347.3594 L455.5,371.3594 M455.5,359.3594 L472.5,359.3594 " fill="none" style="stroke:#000000;stroke-width:0.5;"/><ellipse cx="484.5" cy="359.3594" fill="#FFFFFF" rx="12" ry="12" style="stroke:#000000;stroke-width:0.5;"/><text fill="#000000" font-family="Meiryo" font-size="14" lengthAdjust="spacing" textLength="65" x="443.5" y="388.3545">boundary</text></g><!--entity ????--><g id="elem_&#12501;&#12524;&#12540;&#12512;"><rect fill="#FFFFFF" height="46.2969" rx="2.5" ry="2.5" style="stroke:#000000;stroke-width:0.5;" width="96" x="7" y="105.3594"/><path d="M39,105.3594 L39,110.3594 L32,117.3594 L7,117.3594 " fill="none" style="stroke:#000000;stroke-width:0.5;"/><text fill="#000000" font-family="Meiryo" font-size="14" lengthAdjust="spacing" textLength="56" x="22" y="138.3545">&#12501;&#12524;&#12540;&#12512;</text></g><!--entity ????????--><g id="elem_&#12452;&#12531;&#12479;&#12540;&#12501;&#12455;&#12540;&#12473;"><ellipse cx="476" cy="494.3594" fill="#FFFFFF" rx="8" ry="8" style="stroke:#000000;stroke-width:0.5;"/><text fill="#000000" font-family="Meiryo" font-size="14" lengthAdjust="spacing" textLength="112" x="420" y="524.3545">&#12452;&#12531;&#12479;&#12540;&#12501;&#12455;&#12540;&#12473;</text></g><!--entity ?????--><g id="elem_&#12497;&#12483;&#12465;&#12540;&#12472;"><path d="M112.5,1528.3594 L195.5,1528.3594 A3.75,3.75 0 0 1 198,1530.8594 L205,1550.6563 L219.5,1550.6563 A2.5,2.5 0 0 1 222,1553.1563 L222,1565.1563 A2.5,2.5 0 0 1 219.5,1567.6563 L112.5,1567.6563 A2.5,2.5 0 0 1 110,1565.1563 L110,1530.8594 A2.5,2.5 0 0 1 112.5,1528.3594 " fill="#FFFFFF" style="stroke:#000000;stroke-width:0.5;"/><line style="stroke:#000000;stroke-width:0.5;" x1="110" x2="205" y1="1550.6563" y2="1550.6563"/><text fill="#000000" font-family="Meiryo" font-size="14" font-weight="bold" lengthAdjust="spacing" textLength="70" x="120" y="1544.3545">&#12497;&#12483;&#12465;&#12540;&#12472;</text></g><!--entity ???--><g id="elem_&#12461;&#12517;&#12540;"><path d="M373,115.3594 L425,115.3594 C430,115.3594 430,128.5078 430,128.5078 C430,128.5078 430,141.6563 425,141.6563 L373,141.6563 C368,141.6563 368,128.5078 368,128.5078 C368,128.5078 368,115.3594 373,115.3594 " fill="#FFFFFF" style="stroke:#000000;stroke-width:0.5;"/><path d="M425,115.3594 C420,115.3594 420,128.5078 420,128.5078 C420,141.6563 425,141.6563 425,141.6563 " fill="none" style="stroke:#000000;stroke-width:0.5;"/><text fill="#000000" font-family="Meiryo" font-size="14" lengthAdjust="spacing" textLength="42" x="373" y="133.3545">&#12461;&#12517;&#12540;</text></g><!--entity ????--><g id="elem_&#12473;&#12479;&#12483;&#12463;"><rect fill="#FFFFFF" height="36.2969" rx="2.5" ry="2.5" style="stroke:none;stroke-width:0.5;" width="76" x="472" y="226.3594"/><path d="M457,226.3594 L469.5,226.3594 A2.5,2.5 0 0 1 472,228.8594 L472,260.1563 A2.5,2.5 0 0 0 474.5,262.6563 L545.5,262.6563 A2.5,2.5 0 0 0 548,260.1563 L548,228.8594 A2.5,2.5 0 0 1 550.5,226.3594 L563,226.3594 " fill="none" style="stroke:#000000;stroke-width:0.5;"/><text fill="#000000" font-family="Meiryo" font-size="14" lengthAdjust="spacing" textLength="56" x="482" y="249.3545">&#12473;&#12479;&#12483;&#12463;</text></g><!--entity ??????--><g id="elem_&#12524;&#12463;&#12479;&#12531;&#12464;&#12523;"><rect fill="#FFFFFF" height="36.2969" rx="2.5" ry="2.5" style="stroke:#000000;stroke-width:0.5;" width="104" x="229" y="110.3594"/><text fill="#000000" font-family="Meiryo" font-size="14" lengthAdjust="spacing" textLength="84" x="239" y="133.3545">&#12524;&#12463;&#12479;&#12531;&#12464;&#12523;</text></g><!--entity ?????--><g id="elem_&#12473;&#12488;&#12524;&#12540;&#12472;"><rect fill="#FFFFFF" height="36.2969" rx="35" ry="35" style="stroke:#000000;stroke-width:0.5;" width="90" x="465" y="110.3594"/><text fill="#000000" font-family="Meiryo" font-size="14" lengthAdjust="spacing" textLength="70" x="475" y="133.3545">&#12473;&#12488;&#12524;&#12540;&#12472;</text></g><g id="elem_GMN40"><path d="M1051.5,354.8594 L1051.5,379.9922 L1176.5,379.9922 L1176.5,364.8594 L1166.5,354.8594 L1051.5,354.8594 " fill="#DCF8F8" style="stroke:#000000;stroke-width:0.5;"/><path d="M1166.5,354.8594 L1166.5,364.8594 L1176.5,364.8594 L1166.5,354.8594 " fill="#DCF8F8" style="stroke:#000000;stroke-width:1.0;"/><text fill="#000000" font-family="Meiryo" font-size="13" lengthAdjust="spacing" textLength="104" x="1057.5" y="371.9263">&#12494;&#12540;&#12488;&#12418;&#26360;&#12369;&#12414;&#12377;</text></g><g id="elem_GMN44"><path d="M891.5,354.8594 L891.5,379.9922 L1016.5,379.9922 L1016.5,364.8594 L1006.5,354.8594 L891.5,354.8594 " fill="#DCF8F8" style="stroke:#000000;stroke-width:0.5;"/><path d="M1006.5,354.8594 L1006.5,364.8594 L1016.5,364.8594 L1006.5,354.8594 " fill="#DCF8F8" style="stroke:#000000;stroke-width:1.0;"/><text fill="#000000" font-family="Meiryo" font-size="13" lengthAdjust="spacing" textLength="104" x="897.5" y="371.9263">&#12494;&#12540;&#12488;&#12418;&#26360;&#12369;&#12414;&#12377;</text></g><!--link ???? to ??????--><g id="link_&#12450;&#12463;&#12479;&#12540;_&#12518;&#12540;&#12473;&#12465;&#12540;&#12473;"><path d="M166,166.6594 C166,166.6594 166,223.0894 166,223.0894 " fill="none" id="&#12450;&#12463;&#12479;&#12540;-to-&#12518;&#12540;&#12473;&#12465;&#12540;&#12473;" style="stroke:#000000;stroke-width:1.0;"/><polygon fill="#000000" points="166,228.0894,170,219.0894,166,223.0894,162,219.0894,166,228.0894" style="stroke:#000000;stroke-width:1.0;"/></g><!--reverse link ???? to ????--><g id="link_&#12501;&#12524;&#12540;&#12512;_&#12450;&#12463;&#12479;&#12540;"><path d="M108.04,128.3594 C108.04,128.3594 137.72,128.3594 137.72,128.3594 " fill="none" id="&#12501;&#12524;&#12540;&#12512;-backto-&#12450;&#12463;&#12479;&#12540;" style="stroke:#000000;stroke-width:1.0;"/><polygon fill="#000000" points="103.04,128.3594,112.04,132.3594,108.04,128.3594,112.04,124.3594,103.04,128.3594" style="stroke:#000000;stroke-width:1.0;"/></g><!--link ???? to ??????--><g id="link_&#12450;&#12463;&#12479;&#12540;_&#12524;&#12463;&#12479;&#12531;&#12464;&#12523;"><path d="M194.13,128.3594 C194.13,128.3594 223.91,128.3594 223.91,128.3594 " fill="none" id="&#12450;&#12463;&#12479;&#12540;-to-&#12524;&#12463;&#12479;&#12531;&#12464;&#12523;" style="stroke:#000000;stroke-width:1.0;"/><polygon fill="#000000" points="228.91,128.3594,219.91,124.3594,223.91,128.3594,219.91,132.3594,228.91,128.3594" style="stroke:#000000;stroke-width:1.0;"/></g><!--link ?????? to ???--><g id="link_&#12524;&#12463;&#12479;&#12531;&#12464;&#12523;_&#12461;&#12517;&#12540;"><path d="M333.1,128.3594 C333.1,128.3594 362.84,128.3594 362.84,128.3594 " fill="none" id="&#12524;&#12463;&#12479;&#12531;&#12464;&#12523;-to-&#12461;&#12517;&#12540;" style="stroke:#000000;stroke-width:1.0;"/><polygon fill="#000000" points="367.84,128.3594,358.84,124.3594,362.84,128.3594,358.84,132.3594,367.84,128.3594" style="stroke:#000000;stroke-width:1.0;"/></g><!--link ??? to ?????--><g id="link_&#12461;&#12517;&#12540;_&#12473;&#12488;&#12524;&#12540;&#12472;"><path d="M430.22,128.3594 C430.22,128.3594 459.94,128.3594 459.94,128.3594 " fill="none" id="&#12461;&#12517;&#12540;-to-&#12473;&#12488;&#12524;&#12540;&#12472;" style="stroke:#000000;stroke-width:1.0;"/><polygon fill="#000000" points="464.94,128.3594,455.94,124.3594,459.94,128.3594,455.94,132.3594,464.94,128.3594" style="stroke:#000000;stroke-width:1.0;"/></g><!--link ????? to ????--><g id="link_&#12473;&#12488;&#12524;&#12540;&#12472;_&#12473;&#12479;&#12483;&#12463;"><path d="M510,146.4794 C510,146.4794 510,220.9794 510,220.9794 " fill="none" id="&#12473;&#12488;&#12524;&#12540;&#12472;-to-&#12473;&#12479;&#12483;&#12463;" style="stroke:#000000;stroke-width:1.0;"/><polygon fill="#000000" points="510,225.9794,514,216.9794,510,220.9794,506,216.9794,510,225.9794" style="stroke:#000000;stroke-width:1.0;"/></g><!--link ???? to ????????--><g id="link_&#12473;&#12479;&#12483;&#12463;_&#20837;&#12428;&#23376;&#12364;&#21487;&#33021;&#12391;&#12377;"><path d="M544,262.5094 C544,266.5856 544,271.1789 544,276.1082 C544,278.5728 544,281.1214 544,283.7314 C544,284.3839 544,285.0402 544,285.7 C544,285.865 544,286.0302 544,286.1955 " fill="none" id="&#12473;&#12479;&#12483;&#12463;-to-&#20837;&#12428;&#23376;&#12364;&#21487;&#33021;&#12391;&#12377;" style="stroke:#000000;stroke-width:1.0;"/><polygon fill="#000000" points="544,286.1955,548,277.1955,544,281.1955,540,277.1955,544,286.1955" style="stroke:#000000;stroke-width:1.0;"/></g><!--link ???? to boundary--><g id="link_&#12473;&#12479;&#12483;&#12463;_boundary"><path d="M482.75,262.5094 C482.75,262.5094 482.75,338.2094 482.75,338.2094 " fill="none" id="&#12473;&#12479;&#12483;&#12463;-to-boundary" style="stroke:#000000;stroke-width:1.0;"/><polygon fill="#000000" points="482.75,343.2094,486.75,334.2094,482.75,338.2094,478.75,334.2094,482.75,343.2094" style="stroke:#000000;stroke-width:1.0;"/></g><!--link boundary to ????????--><g id="link_boundary_&#12452;&#12531;&#12479;&#12540;&#12501;&#12455;&#12540;&#12473;"><path d="M476,391.5494 C476,391.5494 476,480.3094 476,480.3094 " fill="none" id="boundary-to-&#12452;&#12531;&#12479;&#12540;&#12501;&#12455;&#12540;&#12473;" style="stroke:#000000;stroke-width:1.0;"/><polygon fill="#000000" points="476,485.3094,480,476.3094,476,480.3094,472,476.3094,476,485.3094" style="stroke:#000000;stroke-width:1.0;"/></g><!--link ?????? to ???--><g id="link_&#12518;&#12540;&#12473;&#12465;&#12540;&#12473;_&#23550;&#35937;&#29289;"><path d="M166,260.4394 C166,282.8394 166,323.4094 166,347.6094 " fill="none" id="&#12518;&#12540;&#12473;&#12465;&#12540;&#12473;-&#23550;&#35937;&#29289;" style="stroke:#000000;stroke-width:1.0;"/></g><!--link ??? to ???--><g id="link_&#23550;&#35937;&#29289;_&#12459;&#12540;&#12489;"><path d="M166,386.9294 C166,413.9194 166,461.6994 166,483.2594 " fill="none" id="&#23550;&#35937;&#29289;-&#12459;&#12540;&#12489;" style="stroke:#000000;stroke-width:1.0;stroke-dasharray:7.0,7.0;"/></g><!--link ??? to ??????--><g id="link_&#12459;&#12540;&#12489;_&#12456;&#12540;&#12472;&#12455;&#12531;&#12488;"><path d="M166,505.4094 C166,523.7794 166,560.7794 166,583.0794 " fill="none" id="&#12459;&#12540;&#12489;-&#12456;&#12540;&#12472;&#12455;&#12531;&#12488;" style="stroke:#000000;stroke-width:1.0;stroke-dasharray:1.0,3.0;"/></g><!--link ???3 to GMN40--><g id="link_&#23376;&#35201;&#32032;3_GMN40"><path d="M842.52,385.3594 C923.33,385.3594 1114,385.3594 1114,385.3594 C1114,385.3594 1114,383.0394 1114,380.0594 " fill="none" id="&#23376;&#35201;&#32032;3-GMN40" style="stroke:#000000;stroke-width:1.0;stroke-dasharray:7.0,7.0;"/></g><!--link ?????? to ???--><g id="link_&#12456;&#12540;&#12472;&#12455;&#12531;&#12488;_&#12494;&#12540;&#12489;"><path d="M166,619.4194 C166,636.0994 166,660.9694 166,679.1294 " fill="none" id="&#12456;&#12540;&#12472;&#12455;&#12531;&#12488;-&#12494;&#12540;&#12489;" style="stroke:#000000;stroke-width:2.0;"/></g><!--link GMN44 to GMN40--><g id="link_GMN44_GMN40"><path d="M1016.78,367.3594 C1028.16,367.3594 1040.03,367.3594 1051.4,367.3594 " fill="none" id="GMN44-GMN40" style="stroke:#000000;stroke-width:1.0;stroke-dasharray:7.0,7.0;"/></g><!--link ??? to ????--><g id="link_&#12494;&#12540;&#12489;_&#12463;&#12521;&#12454;&#12489;"><path d="M166,725.3594 C166,725.3594 166,772.0394 166,772.0394 " fill="none" id="&#12494;&#12540;&#12489;-to-&#12463;&#12521;&#12454;&#12489;" style="stroke:#000000;stroke-width:1.0;"/><polygon fill="#000000" points="166,785.0394,170,779.0394,166,773.0394,162,779.0394,166,785.0394" style="stroke:#000000;stroke-width:1.0;"/></g><!--link ???? to ???????--><g id="link_&#12463;&#12521;&#12454;&#12489;_&#12467;&#12531;&#12509;&#12540;&#12493;&#12531;&#12488;"><path d="M166,831.3594 C166,831.3594 166,878.0394 166,878.0394 " fill="none" id="&#12463;&#12521;&#12454;&#12489;-to-&#12467;&#12531;&#12509;&#12540;&#12493;&#12531;&#12488;" style="stroke:#000000;stroke-width:1.0;"/><polygon fill="none" points="166,891.0394,170,885.0394,166,879.0394,162,885.0394,166,891.0394" style="stroke:#000000;stroke-width:1.0;"/></g><!--link ??????? to ??????--><g id="link_&#12467;&#12531;&#12509;&#12540;&#12493;&#12531;&#12488;_&#12467;&#12531;&#12488;&#12525;&#12540;&#12523;"><path d="M166,937.5794 C166,937.5794 166,982.0694 166,982.0694 " fill="none" id="&#12467;&#12531;&#12509;&#12540;&#12493;&#12531;&#12488;-to-&#12467;&#12531;&#12488;&#12525;&#12540;&#12523;" style="stroke:#000000;stroke-width:1.0;"/><ellipse cx="166" cy="989.0694" fill="#FFFFFF" rx="8" ry="8" style="stroke:#000000;stroke-width:1.0;"/><line style="stroke:#000000;stroke-width:1.0;" x1="166" x2="166" y1="981.0694" y2="997.0694"/><line style="stroke:#000000;stroke-width:1.0;" x1="174" x2="158" y1="989.0694" y2="989.0694"/></g><!--link ?????? to ??????--><g id="link_&#12467;&#12531;&#12488;&#12525;&#12540;&#12523;_&#12487;&#12540;&#12479;&#12505;&#12540;&#12473;"><path d="M166,1045.5294 C166,1045.5294 166,1100.2494 166,1100.2494 " fill="none" id="&#12467;&#12531;&#12488;&#12525;&#12540;&#12523;-to-&#12487;&#12540;&#12479;&#12505;&#12540;&#12473;" style="stroke:#000000;stroke-width:1.0;"/><rect fill="#FFFFFF" height="10" style="stroke:#000000;stroke-width:1.5;" width="10" x="161" y="1100.2494"/></g><!--link ?????? to ??????--><g id="link_&#12487;&#12540;&#12479;&#12505;&#12540;&#12473;_&#12456;&#12531;&#12486;&#12451;&#12486;&#12451;"><path d="M166,1150.4494 C166,1150.4494 166,1202.3294 166,1202.3294 " fill="none" id="&#12487;&#12540;&#12479;&#12505;&#12540;&#12473;-to-&#12456;&#12531;&#12486;&#12451;&#12486;&#12451;" style="stroke:#000000;stroke-width:1.0;"/><polygon fill="#000000" points="166,1210.3294,169,1202.3294,163,1202.3294,166,1210.3294" style="stroke:#000000;stroke-width:1.0;"/></g><!--link ?????? to ????--><g id="link_&#12456;&#12531;&#12486;&#12451;&#12486;&#12451;_&#12501;&#12449;&#12452;&#12523;"><path d="M166,1258.5294 C166,1258.5294 166,1313.0994 166,1313.0994 " fill="none" id="&#12456;&#12531;&#12486;&#12451;&#12486;&#12451;-to-&#12501;&#12449;&#12452;&#12523;" style="stroke:#000000;stroke-width:1.0;"/><ellipse cx="166" cy="1312.0994" fill="#FFFFFF" rx="6" ry="6" style="stroke:#000000;stroke-width:1.5;"/></g><!--link ???? to ?????--><g id="link_&#12501;&#12449;&#12452;&#12523;_&#12501;&#12457;&#12523;&#12480;&#12540;"><path d="M166,1354.6494 C166,1354.6494 166,1400.2194 166,1400.2194 " fill="none" id="&#12501;&#12449;&#12452;&#12523;-to-&#12501;&#12457;&#12523;&#12480;&#12540;" style="stroke:#000000;stroke-width:1.0;"/><polygon fill="none" points="173,1400.2194,166,1420.2194,159,1400.2194,173,1400.2194" style="stroke:#000000;stroke-width:1.0;"/></g><!--link ????? to ?????--><g id="link_&#12501;&#12457;&#12523;&#12480;&#12540;_&#12497;&#12483;&#12465;&#12540;&#12472;"><path d="M166,1468.5094 C166,1468.5094 166,1523.1594 166,1523.1594 " fill="none" id="&#12501;&#12457;&#12523;&#12480;&#12540;-to-&#12497;&#12483;&#12465;&#12540;&#12472;" style="stroke:#000000;stroke-width:1.0;"/><ellipse cx="166" cy="1528.1594" fill="#FFFFFF" rx="6" ry="6" style="stroke:#000000;stroke-width:1.5;"/><path d="M173.0711,1521.0883 A10,10 0 0 0 158.9289 1521.0883" fill="#FFFFFF" style="stroke:#000000;stroke-width:1.5;"/></g><text fill="#888888" font-family="Meiryo" font-size="10" lengthAdjust="spacing" textLength="3" x="1029.5" y="1582.9385">&#160;</text><text fill="#888888" font-family="Meiryo" font-size="10" lengthAdjust="spacing" textLength="3" x="1029.5" y="1594.5791">&#160;</text><text fill="#888888" font-family="Meiryo" font-size="10" font-weight="bold" lengthAdjust="spacing" textLength="267" x="892.5" y="1606.2197">Copyright &#169; 2023 takashno All Right Reserved.</text><text fill="#888888" font-family="Meiryo" font-size="10" lengthAdjust="spacing" textLength="10" x="1159.5" y="1606.2197">&#12288;</text><!--SRC=[fLRTRXD75BwVfnXD959H9Gv1GhHDB16athKN8CHTfR5trbvbisF6Or24YknT1P92coArLG4XXG89QK83IY_Ibf276PQuRz4pCrxRwwnLCVZ2cZrp_d- -CwL9FFL1FpnPGfCuVVHt-iT35RzGoUyg_WsXIPNygf949MsLl45rHZqc49hpUIHnbOTSp0lcbTELtNz_kJjNqkGoGeX5NiQgDVoiDSH7MeC8QdM9VSwbkPohb2_onhAbdfeuS-wpB_3ipEnPBEaYRTOZZY-48RvahY-n9XFNcJSzLwgKLRkjhMIAIcxXglWlxLVyJ2Kxmq6dHolTpOxgmETQz-Wm_Mu3eUPY43Mee4lu9lAOJrkX_1B2_PekCVmL2yGoHnU4u3SkwgpWIaYhY-XodNhy1evun53Jd8EeXdqQDXaAWuZ9vGR3NCWwHzyE6Q121ZwjIh2q06fgWhSYp-gzMWyaGmjSG78jPS5OoebN9T3TPAjKUAvcQonoTRcYsQbOTXHlDLcLDfbhp7of0HLoTjxd8Tmw2WSHD30KszLvN-W6T0myv2tNQZSbK1nbhxLOozLdmQgIHhNGLTwZabO-fbSYANZeMgp0sMzepq2wpaV4FLUx3I30P3jt2HVkqX60Uu7eX5Vrp_ld2uLTDy7xzVNZd_uPtW4uNO-xxGGETIaRdvTAZP16ihKKJWDUb01nfZJaJ7a1hO6l4rSi1244PO8YlpiyKfrL5T-5FNByvyQxWtPtSmiX2yq4BAXupwv4WZBq8YhP189PIg_jWQ3-BY3ftjlkwoV7Qzi46PG6BJkQAra3BeEznFWFSWSgtbB9lafM2JAr1zK_PBnswebs8DbMyQObzZ4GBlQDx6CZy7sc9-ly_lsgIbuQbXs2-bC5XkuO5o2q1raClTwrxe7aRHK_jVy4cP4W-eqGFx6B66WMK2rrM-zcy_mWgBycI7O2PWE0XZVPDVvi43H0LMAKxjjS6uLRcLjPQuFiVVD2iKa_8CW258X2WC-DPGjtfFTWqCnx10smY6ZRlOg2hLScZApvZPHErswcl-Tqkl9SnVVIbp-gphrqVQ-R7AhEbkeyW9xlRLC2bxQ3pX3KM-m3sYpG1fdlayyIFGWetsKm5UNY3Xlb2vdb7CxdA8zvi5csat4N4OT51baTEkSOHj9rWj8B9bUC_AVb69VWOkv1JmsEcQLnFLIKKP39JUlG6KzFv-Psw8nltHetm822zeLy4sLp3D0Iltzqe3htLUSjH0GLBnB6y_EvsJUwGkR_hwg-20HpUXGiyf_0mSUYnXWwo7nQZ2H5HE2UA4QM8g8kMRaOR8g8m3up2a3vJ-3ufW2CJb20xvEP0ZJv3m00]--></g></svg>